<?xml version="1.0" encoding="UTF-8" standalone="no"?>
<!-- Created with Inkscape (http://www.inkscape.org/) -->

<svg
   width="206.88321mm"
   height="211.48137mm"
   viewBox="0 0 206.88321 211.48137"
   version="1.1"
   id="svg1"
   xml:space="preserve"
   inkscape:version="1.4.4 (dcaf3e7, 2026-05-05)"
   sodipodi:docname="devcarnival-logo.svg"
   xmlns:inkscape="http://www.inkscape.org/namespaces/inkscape"
   xmlns:sodipodi="http://sodipodi.sourceforge.net/DTD/sodipodi-0.dtd"
   xmlns="http://www.w3.org/2000/svg"
   xmlns:svg="http://www.w3.org/2000/svg"><sodipodi:namedview
     id="namedview1"
     pagecolor="#ffffff"
     bordercolor="#000000"
     borderopacity="0.25"
     inkscape:showpageshadow="2"
     inkscape:pageopacity="0.0"
     inkscape:pagecheckerboard="0"
     inkscape:deskcolor="#d1d1d1"
     inkscape:document-units="mm"
     inkscape:zoom="0.48693448"
     inkscape:cx="-177.64197"
     inkscape:cy="520.60392"
     inkscape:window-width="1920"
     inkscape:window-height="991"
     inkscape:window-x="-9"
     inkscape:window-y="-9"
     inkscape:window-maximized="1"
     inkscape:current-layer="svg1" /><defs
     id="defs1" /><g
     id="g1"
     transform="translate(497.77474,-10.386332)"><path
       style="fill:#f2902c"
       d="m -344.31642,221.81155 c -8.10595,-1.18147 -14.02397,-2.93417 -19.9245,-5.90089 -10.19561,-5.12626 -18.1392,-13.21103 -23.21969,-23.63239 l -1.51189,-3.10127 0.85697,-1.41399 c 1.23956,-2.04526 7.28026,-10.0655 11.12079,-14.76507 3.48714,-4.26713 13.31104,-14.52778 13.90939,-14.52778 0.27401,0 0.23908,0.32789 -0.15782,1.48149 -0.89017,2.58733 -1.31406,5.56397 -1.30972,9.19722 0.01,8.10128 2.72466,14.68073 8.18261,19.82948 6.93084,6.53821 16.49019,9.00881 25.65902,6.63154 4.86507,-1.2614 8.72229,-3.68166 13.2924,-8.34048 1.40574,-1.43303 2.76054,-2.6055 3.01068,-2.6055 1.12101,0 18.6428,12.96238 18.6428,13.79169 0,0.60243 -1.43084,2.97979 -2.86959,4.76785 -6.18359,7.68488 -16.07495,14.1903 -25.28265,16.62809 -5.52283,1.4622 -8.58549,1.88695 -14.31338,1.98506 -2.91042,0.0498 -5.64885,0.0386 -6.08542,-0.025 z m -147.24062,-1.37212 c -2.02051,-0.0887 -2.38125,-0.4072 -2.38125,-2.10225 0,-1.46965 0.68378,-2.79458 2.5963,-5.03078 0.84072,-0.98301 3.17376,-3.75181 5.18454,-6.15291 8.08933,-9.65957 17.46335,-19.53252 18.25648,-19.22816 0.356,0.13661 0.42102,0.70943 0.42102,3.70934 0,2.9023 0.0756,3.61055 0.41572,3.8928 0.32344,0.26843 2.39381,0.34575 9.32656,0.34829 10.04183,0.004 12.26091,-0.23554 17.238,-1.8583 6.10018,-1.98893 13.73526,-6.93859 20.32535,-13.17647 3.89366,-3.68556 10.15888,-11.0224 17.52176,-20.51875 4.88952,-6.3063 13.38779,-16.92247 15.99086,-19.97604 2.88225,-3.38106 9.15988,-9.68024 11.65362,-11.69362 8.34136,-6.73462 18.13773,-11.07718 28.575,-12.66683 4.02486,-0.61301 12.99792,-0.6178 16.80104,-0.009 11.09736,1.77652 20.4022,6.54536 28.44785,14.57985 3.99962,3.99406 5.3409,5.68624 4.97914,6.28177 -0.21991,0.36202 -2.01935,1.97088 -7.63012,6.82201 -5.52132,4.7738 -9.79169,8.36422 -10.49571,8.82453 l -0.70613,0.4617 -2.60116,-2.40981 c -10.73525,-9.94551 -22.60602,-11.90771 -35.14491,-5.80934 -4.47427,2.17609 -11.00479,7.31752 -18.47992,14.54909 -4.81233,4.65554 -8.64488,9.0255 -14.46316,16.49126 -7.65776,9.8261 -13.79893,17.45434 -16.52107,20.52163 -10.686,12.04088 -21.78286,19.28381 -34.67231,22.63067 -5.42485,1.4086 -6.47549,1.46122 -30.56041,1.53051 -12.29651,0.0354 -23.1312,0.0303 -24.07709,-0.0112 z m 107.51822,-60.80186 c 0.31409,-0.12053 0.17017,-0.37913 -0.63982,-1.14966 -1.41061,-1.34189 -1.45663,-2.56952 -0.14548,-3.88067 0.957,-0.957 1.7641,-1.12121 2.92071,-0.59422 1.4234,0.64855 1.98303,2.71079 1.10095,4.05702 -0.87334,1.33288 -0.25058,1.26872 1.26748,-0.13058 0.78989,-0.7281 1.32586,-1.54266 1.71218,-2.60218 0.94476,-2.5911 2.5753,-4.77117 6.48229,-8.66695 10.92582,-10.8945 20.26209,-15.45226 31.65291,-15.45226 h 2.70883 l 1.82438,1.86834 c 2.13598,2.18744 3.58014,2.92051 6.11008,3.10153 2.36712,0.16936 3.89091,-0.28767 5.4062,-1.62148 3.14568,-2.76894 3.35895,-7.65668 0.46406,-10.63531 -1.62903,-1.67615 -3.19713,-2.32149 -5.66424,-2.3311 -2.82537,-0.011 -4.30674,0.69553 -6.46435,3.08312 l -1.67723,1.85601 -3.98392,0.20394 c -13.7228,0.7025 -22.25543,5.19269 -36.70176,19.31387 -3.1451,3.0743 -3.89689,3.67711 -4.8948,3.9248 -2.74762,0.68198 -3.24775,0.89308 -4.24025,1.78974 -1.98379,1.79223 -2.25413,4.73553 -0.614,6.68472 0.82658,0.98233 2.43111,1.54382 3.37578,1.18132 z m 54.50937,-27.5353 c -1.57003,-0.33066 -2.66336,-2.87745 -1.96209,-4.57047 1.1906,-2.87434 6.09283,-1.90387 6.09283,1.20617 0,2.28262 -1.90393,3.83329 -4.13074,3.3643 z m -164.5064,76.69492 c -0.0708,-0.11462 -0.16716,-3.66423 -0.21405,-7.88802 l -0.0853,-7.67963 1.39453,-1.91469 c 1.64879,-2.26377 9.57765,-11.92376 10.90859,-13.29028 0.8162,-0.83803 1.13004,-0.97166 2.64584,-1.12665 4.38827,-0.44868 7.2581,-3.60643 7.2494,-7.97672 -0.008,-4.18467 -2.70274,-7.19176 -6.70022,-7.47778 -1.55201,-0.11104 -2.0107,-0.0303 -3.41912,0.60174 -1.69775,0.76191 -3.33911,2.28716 -4.16375,3.86922 -0.67715,1.29908 -0.80944,4.54269 -0.24673,6.04953 0.84391,2.25987 0.94257,2.00037 -2.52573,6.64371 -3.3639,4.50357 -4.43046,5.79171 -4.79544,5.79171 -0.11829,0 -0.21508,-14.59107 -0.21508,-32.4246 0,-35.46344 -0.0852,-33.55757 1.5294,-34.22634 0.5752,-0.23826 6.52772,-0.29072 24.42029,-0.21524 l 23.65968,0.0998 3.74337,0.69439 c 8.42145,1.56217 16.21764,4.97565 23.05459,10.09422 4.79934,3.59308 8.01152,6.97301 11.02061,11.59613 2.59029,3.97967 4.62746,8.97369 4.25916,10.44111 -0.17791,0.70885 -4.61768,7.35781 -7.38123,11.05406 -4.88211,6.52983 -15.21698,17.80263 -17.33648,18.90984 -0.73999,0.38656 -0.78622,0.73844 0.53775,-4.09318 0.83166,-3.03501 0.8697,-3.37914 0.86288,-7.8052 -0.006,-3.89916 -0.0962,-4.95132 -0.57139,-6.664 -2.44344,-8.80707 -7.51615,-14.72042 -15.2231,-17.74584 -4.69297,-1.84225 -6.32697,-2.07104 -15.97306,-2.23648 -4.67994,-0.0803 -8.82229,-0.0673 -9.20523,0.0288 l -0.69626,0.17475 0.0771,13.99328 c 0.0424,7.69631 0.16269,14.07877 0.26729,14.18326 0.3041,0.30376 1.44077,-0.57864 2.54519,-1.97584 0.96594,-1.22199 1.03101,-1.42296 1.20436,-3.71927 0.32444,-4.29777 1.85158,-6.95561 4.73144,-8.23463 1.1089,-0.49249 1.82871,-0.61101 3.63195,-0.59803 3.94788,0.0284 6.67444,1.5985 8.21595,4.73108 0.90916,1.84756 0.93469,5.49591 0.051,7.28914 -0.95971,1.94752 -2.3157,3.32222 -4.18454,4.24224 -1.71562,0.8446 -1.71722,0.84483 -4.87138,0.68624 l -3.1552,-0.15864 -1.9493,1.77227 c -1.07212,0.97475 -5.27461,4.93805 -9.33886,8.80734 -9.65625,9.19303 -15.34221,15.36269 -21.25329,23.06129 -1.20113,1.56435 -2.2273,2.84427 -2.28039,2.84427 -0.0531,0 -0.15448,-0.0938 -0.22532,-0.20839 z m 41.26673,-43.02453 c 1.18026,-1.18026 1.23066,-2.42569 0.14724,-3.63826 -0.64821,-0.72546 -0.92863,-0.84202 -2.02578,-0.84202 -1.09716,0 -1.37758,0.11656 -2.02578,0.84202 -0.61033,0.68308 -0.75235,1.08733 -0.75235,2.14156 0,1.66094 0.7904,2.39628 2.57568,2.39628 0.99078,0 1.32656,-0.14515 2.08099,-0.89958 z m -28.58405,5.64187 c -1.55445,-1.36482 -1.49448,-3.15028 0.15589,-4.64142 1.89029,-1.70791 4.98608,-0.25057 4.98608,2.34719 0,0.87131 -0.17787,1.23165 -1.02721,2.08099 -1.36218,1.36218 -2.72572,1.43284 -4.11476,0.21324 z m 78.86322,-46.21573 c -0.20662,-0.40018 -1.27077,-2.70408 -2.36478,-5.11978 -2.57582,-5.68769 -3.57988,-7.67365 -5.67173,-11.21824 -9.8461,-16.683972 -20.81967,-26.559566 -37.44047,-33.694297 -0.69123,-0.296718 -1.25677,-0.704249 -1.25677,-0.905624 0,-0.930931 2.76279,-6.828362 4.39759,-9.387057 0.48812,-0.763984 1.06974,-1.389062 1.29247,-1.389062 0.72217,0 5.71553,2.65307 8.44826,4.488728 8.97609,6.029517 15.69108,12.980433 21.87101,22.639415 5.73379,8.961677 9.71154,19.465927 11.19638,29.566847 0.47399,3.22445 0.54488,5.74668 0.1615,5.74668 -0.14179,0 -0.42685,-0.32742 -0.63346,-0.72761 z m 15.00003,-10.84791 c 0.3152,-5.8797 2.79169,-15.594241 5.78378,-22.688025 6.04345,-14.328093 14.28426,-25.283613 26.27722,-34.933562 3.63737,-2.926747 11.47706,-7.796647 12.55125,-7.796647 0.55499,0 5.57317,8.48774 5.97498,10.10608 0.17237,0.694227 0.0717,0.766234 -3.75059,2.683052 -6.80164,3.410899 -10.15805,5.581379 -15.43709,9.982655 -11.54467,9.625079 -21.45757,23.755262 -28.71172,40.926657 -2.54209,6.01741 -2.93157,6.26661 -2.68783,1.71979 z m -46.22907,-8.03982 c -8.15585,-6.670401 -15.36443,-9.55616 -21.74884,-8.706553 -2.29049,0.304807 -3.82641,0.805084 -9.234,3.007673 -4.19897,1.71031 -6.54493,2.12078 -11.24458,1.96746 -3.42051,-0.11159 -4.12366,-0.21887 -6.4825,-0.98898 -4.91702,-1.605297 -9.74327,-4.459803 -13.36547,-7.905057 l -1.98036,-1.883623 3.90038,-3.839875 c 2.73844,-2.695956 4.08136,-3.839875 4.50786,-3.839875 0.38286,0 1.09296,0.499571 1.92045,1.351091 2.10302,2.164081 5.38745,4.714299 7.33412,5.694623 4.14324,2.086501 8.19655,2.249714 12.63198,0.508648 7.33404,-2.878879 7.46926,-2.913478 11.37708,-2.911055 2.89644,0.0018 3.96155,0.113716 5.63258,0.591856 5.80944,1.662283 10.61118,5.141416 15.0498,10.904417 2.98184,3.87156 5.3792,8.21983 4.51918,8.19677 -0.10914,-0.003 -1.3771,-0.96931 -2.81768,-2.14752 z m 74.98278,1.61488 c 0,-0.93155 3.07688,-5.8299 5.53729,-8.815293 4.25839,-5.167019 8.24327,-8.01613 13.7773,-9.850498 2.05802,-0.682174 2.5859,-0.746158 6.2177,-0.753647 4.39507,-0.0091 3.87917,-0.135325 11.37709,2.784467 2.6707,1.040009 3.15216,1.142377 5.84553,1.242882 2.71409,0.101278 3.10495,0.05099 5.19053,-0.667883 2.93351,-1.01114 5.56919,-2.782439 8.65852,-5.818937 1.40408,-1.380073 2.71942,-2.453967 3.00569,-2.453967 0.43619,0 7.5719,6.610464 8.19768,7.594269 0.59374,0.933432 -6.02259,6.34672 -10.52504,8.611272 -4.71585,2.371885 -8.8886,3.290185 -13.74241,3.024315 -3.58598,-0.19643 -5.7722,-0.74472 -10.73154,-2.69139 -4.99693,-1.961415 -5.77741,-2.193588 -8.50603,-2.53031 -6.31514,-0.779314 -13.55254,2.200581 -21.49512,8.8503 -1.97683,1.65504 -2.80719,2.09117 -2.80719,1.47442 z m -39.11905,-12.976675 c -0.30424,-0.666329 -1.08471,-3.166641 -1.73437,-5.55625 -3.29672,-12.126025 -6.18045,-19.282352 -11.6744,-28.971427 -3.89877,-6.875832 -9.5609,-13.894029 -16.49438,-20.444745 -2.66901,-2.521666 -3.73821,-3.703326 -3.73821,-4.131389 0,-0.583606 4.92905,-7.80253 6.23517,-9.131818 l 0.64404,-0.655468 0.93351,0.50273 c 1.20161,0.647108 6.17769,5.687833 8.5909,8.7025 4.86188,6.073646 9.57614,14.292696 12.69663,22.135915 3.69985,9.299393 5.64688,20.233999 5.62988,31.617709 -0.005,3.055938 -0.12694,5.913438 -0.27194,6.35 l -0.26366,0.79375 z m 55.65961,-15.664807 c -0.79707,-0.797076 -0.93014,-1.106143 -0.93014,-2.160367 0,-1.695469 0.55657,-2.629425 1.97663,-3.31686 1.60352,-0.776254 3.08969,-0.546599 4.3009,0.664612 0.75276,0.752759 0.86622,1.043476 0.86622,2.219481 0,1.167958 -0.12218,1.486577 -0.89225,2.326871 -0.82398,0.89912 -1.0261,0.982134 -2.64173,1.08501 -1.70894,0.108817 -1.77104,0.08984 -2.67963,-0.818747 z m 25.5327,-10.471481 c -2.50091,-2.500913 -2.60437,-2.953846 -1.2801,-5.603961 0.92261,-1.846296 3.73089,-4.874689 5.86033,-6.31966 2.27869,-1.546244 6.18891,-2.920584 8.32633,-2.926486 1.48368,-0.0041 2.06972,0.632939 3.07341,3.340852 0.89955,2.426933 1.17953,4.419713 0.66559,4.737344 -0.18919,0.116926 -1.49952,0.362234 -2.91184,0.545129 -4.2286,0.547602 -7.0044,2.350622 -9.70653,6.304876 -0.68946,1.008956 -1.40037,1.881405 -1.57979,1.938775 -0.17942,0.05737 -1.28075,-0.850222 -2.4474,-2.016869 z m -152.11234,-3.602675 c -2.96643,-3.929004 -6.32751,-5.682783 -10.90925,-5.692324 -1.72221,-0.0036 -1.75629,-0.389896 -0.36745,-4.164351 0.68369,-1.85805 1.36588,-3.527101 1.51599,-3.709002 0.61524,-0.745546 5.30761,-0.0216 8.0404,1.240488 2.90319,1.34078 6.97432,5.789174 6.98191,7.628927 0.003,0.725407 -1.95108,4.716367 -2.71761,5.550377 -0.83109,0.904258 -1.34724,0.730968 -2.54399,-0.854115 z m 83.97763,0.776915 c -2.97401,-1.021911 -3.84353,-4.673472 -1.69544,-7.120015 2.03073,-2.312874 5.89009,-1.599067 6.99486,1.293733 1.34157,3.51285 -1.84295,7.013974 -5.29942,5.826282 z m -50.6704,-7.8603 c -1.99729,-1.35934 -2.61971,-3.461544 -1.61056,-5.439625 1.80451,-3.537145 6.9159,-2.881713 7.96695,1.021602 0.47027,1.746442 -0.45603,3.755798 -2.13059,4.621747 -1.16232,0.601057 -3.18673,0.503461 -4.2258,-0.203724 z m 57.9182,-14.088245 c -2.26028,-1.228524 -2.012,-4.647434 0.42134,-5.80213 0.87341,-0.414458 1.09335,-0.425959 1.94526,-0.10172 2.25672,0.858913 2.89256,3.982673 1.13104,5.556589 -0.94237,0.842008 -2.33331,0.980107 -3.49764,0.347261 z m 52.73549,-3.74937 c -2.57664,-1.269913 -3.09201,-4.54096 -1.07703,-6.8359 2.67369,-3.045166 7.70153,-0.744791 7.30866,3.343913 -0.29129,3.03152 -3.50827,4.834205 -6.23163,3.491987 z m -34.9244,-4.461717 c -1.69006,-0.845504 -3.49535,-2.410918 -3.49535,-3.030911 0,-0.133407 0.84505,-0.789219 1.87789,-1.45736 3.45288,-2.233655 5.37337,-4.865978 7.01546,-9.615718 0.26852,-0.776695 0.67541,-1.512355 0.9042,-1.634799 0.97405,-0.521298 5.13599,2.172903 5.92492,3.835461 0.59412,1.252004 0.38601,2.583983 -0.79095,5.062427 -1.57768,3.322288 -3.9708,5.988428 -6.61092,7.365141 -1.28636,0.670782 -2.75562,0.511154 -4.82525,-0.524241 z m -93.58598,-1.371527 c -1.46253,-0.352954 -2.23366,-0.94473 -2.62942,-2.017862 -0.52876,-1.433793 -0.94245,-4.958304 -0.94245,-8.029405 0,-2.261622 0.0445,-2.468822 0.59272,-2.76224 0.72196,-0.386381 5.23847,-0.63304 6.93447,-0.378709 l 1.23101,0.184602 -0.21191,1.238538 c -0.27255,1.592933 -0.27288,6.779705 -5.9e-4,9.210397 0.28076,2.506279 0.0474,2.754972 -2.54533,2.713074 -1.04463,-0.01688 -2.13745,-0.08816 -2.4285,-0.158395 z m 55.23839,-7.47374 c -1.16905,-0.530697 -4.3061,-3.383415 -4.3061,-3.915816 0,-0.169339 0.73277,-0.805503 1.62838,-1.413697 0.8956,-0.608194 2.10641,-1.535365 2.69069,-2.060379 1.44524,-1.298657 3.35417,-4.283009 4.40143,-6.88103 0.47683,-1.182885 0.98173,-2.221637 1.12202,-2.308338 0.32891,-0.203278 2.77407,1.48226 4.49744,3.100243 l 1.34351,1.261349 -0.1813,1.407435 c -0.49203,3.819564 -4.82019,9.415846 -8.45765,10.935675 -1.19475,0.499196 -1.38124,0.490653 -2.73842,-0.125442 z"
       id="path7" /><path
       style="fill:#f06e23"
       d="m -344.31642,221.81155 c -8.10595,-1.18147 -14.02397,-2.93417 -19.9245,-5.90089 -10.19561,-5.12626 -18.1392,-13.21103 -23.21969,-23.63239 l -1.51189,-3.10127 0.85697,-1.41399 c 1.23956,-2.04526 7.28026,-10.0655 11.12079,-14.76507 3.48714,-4.26713 13.31104,-14.52778 13.90939,-14.52778 0.27372,0 0.23788,0.33137 -0.16133,1.49172 -1.05298,3.06053 -1.37731,5.76715 -1.23211,10.28224 0.15608,4.8536 0.59484,7.16083 1.95406,10.27553 1.35454,3.10396 3.03675,5.53931 5.62455,8.14274 3.41189,3.43249 6.94741,5.52984 11.84714,7.02799 2.16032,0.66054 2.67843,0.71192 7.35121,0.72906 5.46031,0.02 7.14464,-0.27526 10.84791,-1.90175 3.0692,-1.34801 7.86482,-5.01072 10.31382,-7.8773 1.95934,-2.29343 1.75014,-2.30544 5.61406,0.32225 6.71694,4.56789 14.89947,10.98759 14.89027,11.68233 -0.0273,2.06288 -5.05569,7.9508 -10.47653,12.26739 -5.18024,4.125 -11.5199,7.38098 -17.40532,8.93918 -5.52283,1.4622 -8.58549,1.88695 -14.31338,1.98506 -2.91042,0.0498 -5.64885,0.0386 -6.08542,-0.025 z m -147.24062,-1.37212 c -2.02051,-0.0887 -2.38125,-0.4072 -2.38125,-2.10225 0,-1.46965 0.68378,-2.79458 2.5963,-5.03078 0.84072,-0.98301 3.17376,-3.75181 5.18454,-6.15291 8.08933,-9.65957 17.46335,-19.53252 18.25648,-19.22816 0.356,0.13661 0.42102,0.70943 0.42102,3.70934 0,2.9023 0.0756,3.61055 0.41572,3.8928 0.32344,0.26843 2.39381,0.34575 9.32656,0.34829 10.04183,0.004 12.26091,-0.23554 17.238,-1.8583 6.10018,-1.98893 13.73526,-6.93859 20.32535,-13.17647 3.89366,-3.68556 10.15888,-11.0224 17.52176,-20.51875 4.88952,-6.3063 13.38779,-16.92247 15.99086,-19.97604 2.88225,-3.38106 9.15988,-9.68024 11.65362,-11.69362 8.34136,-6.73462 18.13773,-11.07718 28.575,-12.66683 4.02486,-0.61301 12.99792,-0.6178 16.80104,-0.009 11.09736,1.77652 20.4022,6.54536 28.44785,14.57985 3.99962,3.99406 5.3409,5.68624 4.97914,6.28177 -0.21991,0.36202 -2.01935,1.97088 -7.63012,6.82201 -5.52132,4.7738 -9.79169,8.36422 -10.49571,8.82453 l -0.70613,0.4617 -2.60116,-2.40981 c -10.73525,-9.94551 -22.60602,-11.90771 -35.14491,-5.80934 -4.47427,2.17609 -11.00479,7.31752 -18.47992,14.54909 -4.81233,4.65554 -8.64488,9.0255 -14.46316,16.49126 -7.65776,9.8261 -13.79893,17.45434 -16.52107,20.52163 -10.686,12.04088 -21.78286,19.28381 -34.67231,22.63067 -5.42485,1.4086 -6.47549,1.46122 -30.56041,1.53051 -12.29651,0.0354 -23.1312,0.0303 -24.07709,-0.0112 z m 107.51822,-60.80186 c 0.31409,-0.12053 0.17017,-0.37913 -0.63982,-1.14966 -1.41061,-1.34189 -1.45663,-2.56952 -0.14548,-3.88067 0.957,-0.957 1.7641,-1.12121 2.92071,-0.59422 1.4234,0.64855 1.98303,2.71079 1.10095,4.05702 -0.87334,1.33288 -0.25058,1.26872 1.26748,-0.13058 0.78989,-0.7281 1.32586,-1.54266 1.71218,-2.60218 0.94476,-2.5911 2.5753,-4.77117 6.48229,-8.66695 10.92582,-10.8945 20.26209,-15.45226 31.65291,-15.45226 h 2.70883 l 1.82438,1.86834 c 2.13598,2.18744 3.58014,2.92051 6.11008,3.10153 2.36712,0.16936 3.89091,-0.28767 5.4062,-1.62148 3.14568,-2.76894 3.35895,-7.65668 0.46406,-10.63531 -1.62903,-1.67615 -3.19713,-2.32149 -5.66424,-2.3311 -2.82537,-0.011 -4.30674,0.69553 -6.46435,3.08312 l -1.67723,1.85601 -3.98392,0.20394 c -13.7228,0.7025 -22.25543,5.19269 -36.70176,19.31387 -3.1451,3.0743 -3.89689,3.67711 -4.8948,3.9248 -2.74762,0.68198 -3.24775,0.89308 -4.24025,1.78974 -1.98379,1.79223 -2.25413,4.73553 -0.614,6.68472 0.82658,0.98233 2.43111,1.54382 3.37578,1.18132 z m 54.50937,-27.5353 c -1.57003,-0.33066 -2.66336,-2.87745 -1.96209,-4.57047 1.1906,-2.87434 6.09283,-1.90387 6.09283,1.20617 0,2.28262 -1.90393,3.83329 -4.13074,3.3643 z m -164.23406,75.72799 c -0.0961,-0.25051 -0.17381,-3.63065 -0.17262,-7.51143 l 0.002,-7.05596 1.6819,-2.24896 c 0.92504,-1.23693 3.75935,-4.74927 6.29845,-7.80521 l 4.61656,-5.55625 2.09991,-0.34682 c 2.59465,-0.42853 4.06931,-1.14279 5.44845,-2.63898 1.63724,-1.7762 2.1897,-3.23621 2.17404,-5.74545 -0.0212,-3.39312 -1.47807,-5.80817 -4.37802,-7.25729 -2.85372,-1.42603 -5.80746,-0.97662 -8.66285,1.31804 -2.48794,1.99936 -3.54453,5.95523 -2.43192,9.10508 0.30663,0.86808 0.55751,1.75519 0.55751,1.97135 0,0.55743 -6.87935,9.57832 -7.16827,9.39975 -0.1392,-0.086 -0.1813,-4.74409 -0.10104,-11.17867 0.0757,-6.06714 0.17991,-20.49031 0.23163,-32.05148 l 0.094,-21.0203 0.70846,-0.60938 c 0.69407,-0.59702 0.82501,-0.60901 6.44839,-0.5908 3.15696,0.0102 5.97806,0.12093 6.2691,0.24599 0.4858,0.20876 0.47496,0.22925 -0.13229,0.25004 -0.36381,0.0125 -0.82638,0.12709 -1.02794,0.25474 -0.29245,0.18522 -0.25127,0.29375 0.20391,0.53735 0.31371,0.16789 0.67499,0.24061 0.80284,0.16159 0.12785,-0.079 0.62238,0.30043 1.09896,0.84322 0.61632,0.70195 1.04417,0.9636 1.48186,0.90625 0.50547,-0.0662 0.61537,0.0409 0.61537,0.59975 0,0.61382 0.10038,0.68039 1.02593,0.68039 0.58917,0 1.16617,0.16897 1.35532,0.39688 0.18115,0.21828 0.47111,0.39687 0.64435,0.39687 0.17324,0 0.65718,0.35719 1.07544,0.79375 0.53381,0.55719 1.01205,0.79375 1.6046,0.79375 0.46428,0 0.99237,0.1786 1.17352,0.39688 0.18116,0.21828 0.53217,0.39687 0.78003,0.39687 0.24786,0 0.71675,0.28325 1.04198,0.62945 0.32523,0.34619 0.97106,0.69192 1.43518,0.76828 0.46412,0.0764 1.61776,0.5862 2.56365,1.13297 1.69268,0.97846 1.78025,0.9977 5.55625,1.22072 15.91525,0.94001 24.04899,3.60508 32.49004,10.64555 4.5897,3.82816 8.70725,10.14728 10.09572,15.4937 0.1522,0.58607 0.40039,1.54184 0.55152,2.12392 0.15113,0.58208 0.4265,1.05833 0.61194,1.05833 0.70185,0 4.86829,-5.46854 7.68382,-10.08519 0.56645,-0.92882 1.08239,-1.53994 1.14653,-1.35804 0.0641,0.1819 0.34481,0.33073 0.62372,0.33073 0.27892,0 0.50712,0.10518 0.50712,0.23373 0,0.12855 0.20916,0.28842 0.46481,0.35527 0.65371,0.17095 0.8223,3.18878 0.21221,3.79887 -0.59968,0.59967 -1.99994,2.67605 -1.99994,2.96561 0,0.13567 -0.37123,0.70953 -0.82495,1.27525 -0.45373,0.56571 -1.29725,1.77178 -1.87451,2.68016 -1.25274,1.97134 -2.26928,2.78725 -3.68582,2.95837 -0.0922,0.0111 -0.23497,0.27795 -0.31734,0.59292 -0.11889,0.45465 -0.22567,0.50968 -0.51808,0.267 -0.30472,-0.25289 -0.42408,0.006 -0.69117,1.50081 -0.17756,0.99357 -0.5556,2.18924 -0.84009,2.65705 -1.3372,2.19886 -10.85986,12.25592 -11.24243,11.87335 -0.0925,-0.0925 0.13777,-1.45577 0.51174,-3.02945 1.90359,-8.01027 0.7943,-14.93235 -3.56754,-22.26174 -0.75129,-1.26243 -2.03383,-2.99194 -2.85008,-3.84336 -1.54966,-1.61642 -4.62345,-4.23604 -5.81661,-4.95718 -1.35538,-0.81917 -8.10645,-2.87054 -10.34492,-3.14338 -2.82362,-0.34417 -18.78078,-0.35607 -19.32153,-0.0144 -0.33896,0.21417 -0.40771,1.69026 -0.47115,10.11626 -0.0408,5.42603 0.0187,12.00863 0.1323,14.62801 0.20394,4.70207 0.2143,4.7636 0.81676,4.849 0.46873,0.0664 1.17797,-0.4703 3.05915,-2.31511 1.66521,-1.63301 2.64556,-2.4016 3.06327,-2.4016 0.79641,0 2.6873,0.5415 3.16448,0.90622 0.21434,0.16382 1.28001,0.25452 2.51354,0.21391 2.02874,-0.0668 2.09967,-0.0505 1.34769,0.30924 -0.87009,0.41626 -0.82477,0.43081 1.77693,0.57051 0.97731,0.0525 1.84754,-0.0188 1.93384,-0.15848 0.25396,-0.41091 0.65486,-0.29099 0.65486,0.19589 0,0.34984 0.0705,0.37924 0.3175,0.13229 0.45925,-0.45925 0.74083,-0.3905 0.74083,0.18088 0,0.56801 -1.66348,2.1641 -2.94749,2.82809 -0.71856,0.37158 -1.39432,0.42348 -4.0507,0.31108 l -3.18827,-0.13489 -1.19062,0.87069 c -0.65484,0.47888 -1.66688,1.38742 -2.24896,2.01898 -0.58208,0.63157 -4.25479,4.24392 -8.16157,8.02746 -8.38323,8.11879 -14.10066,14.21969 -18.6758,19.92843 -1.82882,2.28195 -3.5739,4.49297 -3.87796,4.91338 -0.47483,0.65654 -0.57748,0.70012 -0.7276,0.30892 z m 13.21173,-36.25961 c -1.04966,-0.56224 -1.46188,-1.17112 -1.47184,-2.17398 -0.0121,-1.22181 0.46064,-2.07956 1.43561,-2.60462 1.1221,-0.60429 2.57235,-0.34679 3.30701,0.58717 1.71595,2.18148 -0.86013,5.48266 -3.27078,4.19143 z m 76.83641,-21.55154 c 0,-0.29963 0.11906,-0.54478 0.26458,-0.54478 0.14552,0 0.26458,0.17156 0.26458,0.38126 0,0.20969 -0.11906,0.45484 -0.26458,0.54478 -0.14552,0.0899 -0.26458,-0.0816 -0.26458,-0.38126 z m 1.22542,-24.82031 c -0.20662,-0.40018 -1.27077,-2.70408 -2.36478,-5.11978 -2.57582,-5.68769 -3.57988,-7.67365 -5.67173,-11.21824 -9.8461,-16.683972 -20.81967,-26.559566 -37.44047,-33.694297 -0.69123,-0.296718 -1.25677,-0.704249 -1.25677,-0.905624 0,-0.930931 2.76279,-6.828362 4.39759,-9.387057 0.48812,-0.763984 1.06974,-1.389062 1.29247,-1.389062 0.72217,0 5.71553,2.65307 8.44826,4.488728 8.97609,6.029517 15.69108,12.980433 21.87101,22.639415 5.73379,8.961677 9.71154,19.465927 11.19638,29.566847 0.47399,3.22445 0.54488,5.74668 0.1615,5.74668 -0.14179,0 -0.42685,-0.32742 -0.63346,-0.72761 z m 15.04913,-9.92187 c 0.5963,-7.59682 2.90573,-16.585196 6.26873,-24.398128 5.95247,-13.828759 14.16735,-24.61419 26.00904,-34.147626 3.67617,-2.959587 11.01182,-7.521499 12.10874,-7.530215 0.29083,-0.0023 0.90233,0.673248 1.61323,1.782216 1.78478,2.784157 4.6605,8.381537 4.45425,8.66988 -0.10221,0.142894 -1.55505,0.914651 -3.22854,1.715016 -11.75459,5.621758 -20.55129,12.949336 -29.43127,24.515985 -2.58331,3.364906 -6.00096,8.468733 -7.91968,11.827048 -0.59367,1.039093 -1.31767,2.305974 -1.60888,2.815304 -2.25678,3.94704 -6.97375,14.16262 -7.48289,16.20573 -0.0997,0.40018 -0.35518,0.7276 -0.56769,0.7276 -0.3214,0 -0.35756,-0.36707 -0.21504,-2.18281 z m -46.27817,-8.96586 c -8.15585,-6.670401 -15.36443,-9.55616 -21.74884,-8.706553 -2.29049,0.304807 -3.82641,0.805084 -9.234,3.007673 -4.19897,1.71031 -6.54493,2.12078 -11.24458,1.96746 -3.42051,-0.11159 -4.12366,-0.21887 -6.4825,-0.98898 -4.91702,-1.605297 -9.74327,-4.459803 -13.36547,-7.905057 l -1.98036,-1.883623 3.90038,-3.839875 c 2.73844,-2.695956 4.08136,-3.839875 4.50786,-3.839875 0.38286,0 1.09296,0.499571 1.92045,1.351091 2.10302,2.164081 5.38745,4.714299 7.33412,5.694623 4.14324,2.086501 8.19655,2.249714 12.63198,0.508648 7.33404,-2.878879 7.46926,-2.913478 11.37708,-2.911055 2.89644,0.0018 3.96155,0.113716 5.63258,0.591856 5.80944,1.662283 10.61118,5.141416 15.0498,10.904417 2.98184,3.87156 5.3792,8.21983 4.51918,8.19677 -0.10914,-0.003 -1.3771,-0.96931 -2.81768,-2.14752 z m 74.98278,1.61488 c 0,-0.93155 3.07688,-5.8299 5.53729,-8.815293 4.25839,-5.167019 8.24327,-8.01613 13.7773,-9.850498 2.05802,-0.682174 2.5859,-0.746158 6.2177,-0.753647 4.39507,-0.0091 3.87917,-0.135325 11.37709,2.784467 2.6707,1.040009 3.15216,1.142377 5.84553,1.242882 2.71409,0.101278 3.10495,0.05099 5.19053,-0.667883 2.93351,-1.01114 5.56919,-2.782439 8.65852,-5.818937 1.40408,-1.380073 2.71942,-2.453967 3.00569,-2.453967 0.43619,0 7.5719,6.610464 8.19768,7.594269 0.59374,0.933432 -6.02259,6.34672 -10.52504,8.611272 -4.71585,2.371885 -8.8886,3.290185 -13.74241,3.024315 -3.58598,-0.19643 -5.7722,-0.74472 -10.73154,-2.69139 -4.99693,-1.961415 -5.77741,-2.193588 -8.50603,-2.53031 -6.31514,-0.779314 -13.55254,2.200581 -21.49512,8.8503 -1.97683,1.65504 -2.80719,2.09117 -2.80719,1.47442 z m 16.54056,-28.641482 c -0.79707,-0.797076 -0.93014,-1.106143 -0.93014,-2.160367 0,-1.695469 0.55657,-2.629425 1.97663,-3.31686 1.60352,-0.776254 3.08969,-0.546599 4.3009,0.664612 0.75276,0.752759 0.86622,1.043476 0.86622,2.219481 0,1.167958 -0.12218,1.486577 -0.89225,2.326871 -0.82398,0.89912 -1.0261,0.982134 -2.64173,1.08501 -1.70894,0.108817 -1.77104,0.08984 -2.67963,-0.818747 z m 25.5327,-10.471481 c -2.50091,-2.500913 -2.60437,-2.953846 -1.2801,-5.603961 0.92261,-1.846296 3.73089,-4.874689 5.86033,-6.31966 2.27869,-1.546244 6.18891,-2.920584 8.32633,-2.926486 1.48368,-0.0041 2.06972,0.632939 3.07341,3.340852 0.89955,2.426933 1.17953,4.419713 0.66559,4.737344 -0.18919,0.116926 -1.49952,0.362234 -2.91184,0.545129 -4.2286,0.547602 -7.0044,2.350622 -9.70653,6.304876 -0.68946,1.008956 -1.40037,1.881405 -1.57979,1.938775 -0.17942,0.05737 -1.28075,-0.850222 -2.4474,-2.016869 z m -151.96594,-3.674601 c -1.15897,-1.567177 -3.18379,-3.512629 -4.42251,-4.249172 -1.17512,-0.698721 -3.71291,-1.373224 -5.16669,-1.373224 -1.64882,0 -2.75561,-0.283535 -2.75561,-0.70592 0,-0.206355 0.55562,-1.917878 1.23471,-3.803386 l 1.23471,-3.428195 h 1.42504 c 1.86917,0 4.87039,0.686097 6.68887,1.529115 1.8517,0.85842 5.48543,4.441405 6.30513,6.21709 l 0.58346,1.263912 -0.93534,2.024413 c -1.13234,2.450819 -2.1071,3.782137 -2.76918,3.782137 -0.28151,0 -0.89206,-0.539389 -1.42259,-1.25677 z m 83.83123,0.848841 c -2.97401,-1.021911 -3.84353,-4.673472 -1.69544,-7.120015 2.03073,-2.312874 5.89009,-1.599067 6.99486,1.293733 1.34157,3.51285 -1.84295,7.013974 -5.29942,5.826282 z m -21.71215,-1.192602 c -0.81796,-1.278983 -1.16057,-2.28989 -0.67419,-1.989291 0.12955,0.08006 0.42665,-0.257142 0.66022,-0.74935 0.61062,-1.286793 1.72228,-1.594214 2.92207,-0.80808 1.20752,0.791198 -0.0114,2.427117 -1.89115,2.538027 -0.86688,0.05115 -1.05106,0.140115 -0.83329,0.402507 0.15376,0.185264 0.23057,0.48381 0.17069,0.663436 -0.0804,0.241041 -0.17317,0.226044 -0.35435,-0.05725 z m -1.91169,-3.027415 c 0.046,-0.479007 0.24558,-0.823623 0.50565,-0.872885 0.60714,-0.115001 0.8697,0.714945 0.29341,0.927485 -0.25221,0.09302 -0.55225,0.29687 -0.66677,0.453006 -0.11451,0.156135 -0.17404,-0.07229 -0.13229,-0.507606 z m -27.04656,-3.640283 c -1.99729,-1.35934 -2.61971,-3.461544 -1.61056,-5.439625 1.80451,-3.537145 6.9159,-2.881713 7.96695,1.021602 0.47027,1.746442 -0.45603,3.755798 -2.13059,4.621747 -1.16232,0.601057 -3.18673,0.503461 -4.2258,-0.203724 z m 10.37255,-16.44593 c -5.46577,-5.461107 -5.36163,-5.24223 -3.5016,-7.360045 1.35132,-1.538602 2.66719,-3.93425 2.51357,-4.576159 -0.0689,-0.287978 0.10103,-0.813478 0.37766,-1.167779 0.48699,-0.623712 0.52479,-0.629887 1.18956,-0.194313 0.55842,0.365895 0.78237,0.390053 1.19971,0.129421 0.45507,-0.284198 0.74725,-0.09947 2.5827,1.632926 1.13827,1.074356 2.36724,2.374831 2.73104,2.889943 0.3638,0.515112 0.97938,1.296486 1.36795,1.736387 0.38857,0.4399 1.48989,1.852377 2.44739,3.138836 1.57988,2.12267 1.74091,2.456843 1.74091,3.61288 0,1.230003 -0.041,1.297886 -1.19063,1.971615 -0.65484,0.383764 -1.19062,0.861481 -1.19062,1.061592 0,0.200111 -0.56555,0.566782 -1.25677,0.814824 -0.69123,0.248042 -1.63195,0.615077 -2.09051,0.815633 -1.63395,0.714632 -1.81068,0.599562 -6.92036,-4.505761 z m 65.35674,-5.853402 c -1.69006,-0.845504 -3.49535,-2.410918 -3.49535,-3.030911 0,-0.133407 0.84505,-0.789219 1.87789,-1.45736 3.45288,-2.233655 5.37337,-4.865978 7.01546,-9.615718 0.26852,-0.776695 0.67541,-1.512355 0.9042,-1.634799 0.97405,-0.521298 5.13599,2.172903 5.92492,3.835461 0.59412,1.252004 0.38601,2.583983 -0.79095,5.062427 -1.57768,3.322288 -3.9708,5.988428 -6.61092,7.365141 -1.28636,0.670782 -2.75562,0.511154 -4.82525,-0.524241 z m -93.91167,-2.424127 c 0.25743,-0.06708 0.61462,-0.06267 0.79375,0.0098 0.17913,0.07248 -0.0315,0.127362 -0.46806,0.12197 -0.43656,-0.0054 -0.58312,-0.06469 -0.32569,-0.131774 z m -1.24479,-1.326589 c -0.14359,-0.377084 -0.1132,-0.407475 0.14811,-0.148112 0.18082,0.179475 0.26211,0.39297 0.18065,0.474431 -0.0815,0.08146 -0.22941,-0.06538 -0.32876,-0.326319 z m -0.17179,-2.085513 c -0.86669,-2.17895 -0.47414,-6.987878 0.57042,-6.987878 0.26354,0 0.55574,0.123906 0.64934,0.275346 0.0936,0.151441 0.39828,0.202948 0.67707,0.114462 0.61321,-0.194624 0.61651,-0.16166 0.0897,0.894429 -0.39206,0.785903 -0.38376,0.890546 0.13764,1.734189 0.30519,0.493801 0.71783,0.960349 0.91699,1.036774 0.56513,0.216859 0.13605,1.870892 -0.51563,1.987669 -0.28525,0.05112 -0.90126,0.457942 -1.3689,0.904058 l -0.85027,0.811119 z m 56.98066,-3.009038 c -1.16905,-0.530697 -4.3061,-3.383415 -4.3061,-3.915816 0,-0.169339 0.73277,-0.805503 1.62838,-1.413697 0.8956,-0.608194 2.10641,-1.535365 2.69069,-2.060379 1.44524,-1.298657 3.35417,-4.283009 4.40143,-6.88103 0.47683,-1.182885 0.98173,-2.221637 1.12202,-2.308338 0.32891,-0.203278 2.77407,1.48226 4.49744,3.100243 l 1.34351,1.261349 -0.1813,1.407435 c -0.49203,3.819564 -4.82019,9.415846 -8.45765,10.935675 -1.19475,0.499196 -1.38124,0.490653 -2.73842,-0.125442 z m -55.99074,-4.838735 c 0.0672,-0.109141 0.47931,-0.198438 0.91588,-0.198438 0.43812,0 0.72362,0.113467 0.63722,0.253256 -0.0861,0.139291 -0.49823,0.228588 -0.91587,0.198438 -0.41765,-0.03015 -0.7044,-0.144116 -0.63723,-0.253256 z"
       id="path6" /><path
       style="fill:#e83646"
       d="m -344.31642,221.81155 c -8.10595,-1.18147 -14.02397,-2.93417 -19.9245,-5.90089 -10.19561,-5.12626 -18.1392,-13.21103 -23.21969,-23.63239 l -1.51189,-3.10127 0.85697,-1.41399 c 1.23956,-2.04526 7.28026,-10.0655 11.12079,-14.76507 3.48714,-4.26713 13.31104,-14.52778 13.90939,-14.52778 0.27372,0 0.23788,0.33137 -0.16133,1.49172 -1.05298,3.06053 -1.37731,5.76715 -1.23211,10.28224 0.15608,4.8536 0.59484,7.16083 1.95406,10.27553 1.35454,3.10396 3.03675,5.53931 5.62455,8.14274 3.41189,3.43249 6.94741,5.52984 11.84714,7.02799 2.16032,0.66054 2.67843,0.71192 7.35121,0.72906 5.46031,0.02 7.14464,-0.27526 10.84791,-1.90175 3.0692,-1.34801 7.86482,-5.01072 10.31382,-7.8773 1.95934,-2.29343 1.75014,-2.30544 5.61406,0.32225 6.71694,4.56789 14.89947,10.98759 14.89027,11.68233 -0.0273,2.06288 -5.05569,7.9508 -10.47653,12.26739 -5.18024,4.125 -11.5199,7.38098 -17.40532,8.93918 -5.52283,1.4622 -8.58549,1.88695 -14.31338,1.98506 -2.91042,0.0498 -5.64885,0.0386 -6.08542,-0.025 z m -147.24062,-1.37212 c -2.02051,-0.0887 -2.38125,-0.4072 -2.38125,-2.10225 0,-1.46965 0.68378,-2.79458 2.5963,-5.03078 0.84072,-0.98301 3.17376,-3.75181 5.18454,-6.15291 8.08933,-9.65957 17.46335,-19.53252 18.25648,-19.22816 0.356,0.13661 0.42102,0.70943 0.42102,3.70934 0,2.9023 0.0756,3.61055 0.41572,3.8928 0.32344,0.26843 2.39381,0.34575 9.32656,0.34829 10.04183,0.004 12.26091,-0.23554 17.238,-1.8583 6.10018,-1.98893 13.73526,-6.93859 20.32535,-13.17647 3.89366,-3.68556 10.15888,-11.0224 17.52176,-20.51875 4.88952,-6.3063 13.38779,-16.92247 15.99086,-19.97604 2.88225,-3.38106 9.15988,-9.68024 11.65362,-11.69362 8.34136,-6.73462 18.13773,-11.07718 28.575,-12.66683 4.02486,-0.61301 12.99792,-0.6178 16.80104,-0.009 11.09736,1.77652 20.4022,6.54536 28.44785,14.57985 3.99962,3.99406 5.3409,5.68624 4.97914,6.28177 -0.21991,0.36202 -2.01935,1.97088 -7.63012,6.82201 -5.52132,4.7738 -9.79169,8.36422 -10.49571,8.82453 l -0.70613,0.4617 -2.60116,-2.40981 c -10.73525,-9.94551 -22.60602,-11.90771 -35.14491,-5.80934 -4.47427,2.17609 -11.00479,7.31752 -18.47992,14.54909 -4.81233,4.65554 -8.64488,9.0255 -14.46316,16.49126 -7.65776,9.8261 -13.79893,17.45434 -16.52107,20.52163 -10.686,12.04088 -21.78286,19.28381 -34.67231,22.63067 -5.42485,1.4086 -6.47549,1.46122 -30.56041,1.53051 -12.29651,0.0354 -23.1312,0.0303 -24.07709,-0.0112 z m 107.51822,-60.80186 c 0.31409,-0.12053 0.17017,-0.37913 -0.63982,-1.14966 -1.41061,-1.34189 -1.45663,-2.56952 -0.14548,-3.88067 0.957,-0.957 1.7641,-1.12121 2.92071,-0.59422 1.4234,0.64855 1.98303,2.71079 1.10095,4.05702 -0.87334,1.33288 -0.25058,1.26872 1.26748,-0.13058 0.78989,-0.7281 1.32586,-1.54266 1.71218,-2.60218 0.94476,-2.5911 2.5753,-4.77117 6.48229,-8.66695 10.92582,-10.8945 20.26209,-15.45226 31.65291,-15.45226 h 2.70883 l 1.82438,1.86834 c 2.13598,2.18744 3.58014,2.92051 6.11008,3.10153 2.36712,0.16936 3.89091,-0.28767 5.4062,-1.62148 3.14568,-2.76894 3.35895,-7.65668 0.46406,-10.63531 -1.62903,-1.67615 -3.19713,-2.32149 -5.66424,-2.3311 -2.82537,-0.011 -4.30674,0.69553 -6.46435,3.08312 l -1.67723,1.85601 -3.98392,0.20394 c -13.7228,0.7025 -22.25543,5.19269 -36.70176,19.31387 -3.1451,3.0743 -3.89689,3.67711 -4.8948,3.9248 -2.74762,0.68198 -3.24775,0.89308 -4.24025,1.78974 -1.98379,1.79223 -2.25413,4.73553 -0.614,6.68472 0.82658,0.98233 2.43111,1.54382 3.37578,1.18132 z m 54.50937,-27.5353 c -1.57003,-0.33066 -2.66336,-2.87745 -1.96209,-4.57047 1.1906,-2.87434 6.09283,-1.90387 6.09283,1.20617 0,2.28262 -1.90393,3.83329 -4.13074,3.3643 z m -164.1323,68.67454 -0.012,-7.56732 1.28728,-1.6931 c 0.708,-0.93121 1.54158,-1.92005 1.8524,-2.19743 l 0.56513,-0.50432 -0.39523,0.79227 c -0.21738,0.43574 -0.64691,1.01987 -0.95452,1.29807 -1.37693,1.24526 -1.58217,2.17465 -1.61901,7.33111 -0.0463,6.48182 0.21818,7.77158 1.38108,6.73459 0.31553,-0.28136 0.31859,-0.26161 0.0205,0.13229 -0.1927,0.25466 -0.52141,0.46302 -0.73046,0.46302 -0.20905,0 -0.32531,0.0893 -0.25837,0.19844 0.067,0.10914 -0.15877,0.73422 -0.50159,1.38906 l -0.62332,1.19063 z m 5.28923,0.084 c -0.005,-0.18675 0.42078,-0.76985 0.94671,-1.29577 1.01347,-1.01347 0.84463,-0.49141 -0.27217,0.84157 -0.36577,0.43656 -0.66931,0.64095 -0.67454,0.4542 z m 3.09199,-3.78104 c 0.32338,-0.33688 0.65452,-0.54596 0.73586,-0.46461 0.0813,0.0813 -0.18324,0.35697 -0.58796,0.61251 l -0.73586,0.46461 z m -8.39317,-14.23672 c 0,-0.29105 0.11906,-0.60276 0.26458,-0.69269 0.14552,-0.0899 0.26458,0.0746 0.26458,0.36564 0,0.29104 -0.11906,0.60275 -0.26458,0.69269 -0.14552,0.0899 -0.26458,-0.0746 -0.26458,-0.36564 z m 11.90625,-14.68321 c 0,-0.0549 0.20836,-0.2633 0.46302,-0.46302 0.41964,-0.32911 0.429,-0.31975 0.0999,0.0999 -0.34564,0.44073 -0.56291,0.58089 -0.56291,0.36313 z m 79.2775,-42.96105 c -0.20662,-0.40018 -1.27077,-2.70408 -2.36478,-5.11978 -2.57582,-5.68769 -3.57988,-7.67365 -5.67173,-11.21824 -9.8461,-16.683972 -20.81967,-26.559566 -37.44047,-33.694297 -0.69123,-0.296718 -1.25677,-0.704249 -1.25677,-0.905624 0,-0.930931 2.76279,-6.828362 4.39759,-9.387057 0.48812,-0.763984 1.06974,-1.389062 1.29247,-1.389062 0.72217,0 5.71553,2.65307 8.44826,4.488728 8.97609,6.029517 15.69108,12.980433 21.87101,22.639415 5.73379,8.961677 9.71154,19.465927 11.19638,29.566847 0.47399,3.22445 0.54488,5.74668 0.1615,5.74668 -0.14179,0 -0.42685,-0.32742 -0.63346,-0.72761 z m 15.04913,-9.92187 c 0.5963,-7.59682 2.90573,-16.585196 6.26873,-24.398128 5.95247,-13.828759 14.16735,-24.61419 26.00904,-34.147626 3.67617,-2.959587 11.01182,-7.521499 12.10874,-7.530215 0.29083,-0.0023 0.90233,0.673248 1.61323,1.782216 1.78478,2.784157 4.6605,8.381537 4.45425,8.66988 -0.10221,0.142894 -1.55505,0.914651 -3.22854,1.715016 -11.75459,5.621758 -20.55129,12.949336 -29.43127,24.515985 -2.58331,3.364906 -6.00096,8.468733 -7.91968,11.827048 -0.59367,1.039093 -1.31767,2.305974 -1.60888,2.815304 -2.25678,3.94704 -6.97375,14.16262 -7.48289,16.20573 -0.0997,0.40018 -0.35518,0.7276 -0.56769,0.7276 -0.3214,0 -0.35756,-0.36707 -0.21504,-2.18281 z m -46.27817,-8.96586 c -8.15585,-6.670401 -15.36443,-9.55616 -21.74884,-8.706553 -2.29049,0.304807 -3.82641,0.805084 -9.234,3.007673 -4.19897,1.71031 -6.54493,2.12078 -11.24458,1.96746 -3.42051,-0.11159 -4.12366,-0.21887 -6.4825,-0.98898 -4.91702,-1.605297 -9.74327,-4.459803 -13.36547,-7.905057 l -1.98036,-1.883623 3.90038,-3.839875 c 2.73844,-2.695956 4.08136,-3.839875 4.50786,-3.839875 0.38286,0 1.09296,0.499571 1.92045,1.351091 2.10302,2.164081 5.38745,4.714299 7.33412,5.694623 4.14324,2.086501 8.19655,2.249714 12.63198,0.508648 7.33404,-2.878879 7.46926,-2.913478 11.37708,-2.911055 2.89644,0.0018 3.96155,0.113716 5.63258,0.591856 5.80944,1.662283 10.61118,5.141416 15.0498,10.904417 2.98184,3.87156 5.3792,8.21983 4.51918,8.19677 -0.10914,-0.003 -1.3771,-0.96931 -2.81768,-2.14752 z m 74.98278,1.61488 c 0,-0.93155 3.07688,-5.8299 5.53729,-8.815293 4.25839,-5.167019 8.24327,-8.01613 13.7773,-9.850498 2.05802,-0.682174 2.5859,-0.746158 6.2177,-0.753647 4.39507,-0.0091 3.87917,-0.135325 11.37709,2.784467 2.6707,1.040009 3.15216,1.142377 5.84553,1.242882 2.71409,0.101278 3.10495,0.05099 5.19053,-0.667883 2.93351,-1.01114 5.56919,-2.782439 8.65852,-5.818937 1.40408,-1.380073 2.71942,-2.453967 3.00569,-2.453967 0.43619,0 7.5719,6.610464 8.19768,7.594269 0.59374,0.933432 -6.02259,6.34672 -10.52504,8.611272 -4.71585,2.371885 -8.8886,3.290185 -13.74241,3.024315 -3.58598,-0.19643 -5.7722,-0.74472 -10.73154,-2.69139 -4.99693,-1.961415 -5.77741,-2.193588 -8.50603,-2.53031 -6.31514,-0.779314 -13.55254,2.200581 -21.49512,8.8503 -1.97683,1.65504 -2.80719,2.09117 -2.80719,1.47442 z m 16.54056,-28.641482 c -0.79707,-0.797076 -0.93014,-1.106143 -0.93014,-2.160367 0,-1.695469 0.55657,-2.629425 1.97663,-3.31686 1.60352,-0.776254 3.08969,-0.546599 4.3009,0.664612 0.75276,0.752759 0.86622,1.043476 0.86622,2.219481 0,1.167958 -0.12218,1.486577 -0.89225,2.326871 -0.82398,0.89912 -1.0261,0.982134 -2.64173,1.08501 -1.70894,0.108817 -1.77104,0.08984 -2.67963,-0.818747 z m 25.5327,-10.471481 c -2.50091,-2.500913 -2.60437,-2.953846 -1.2801,-5.603961 0.92261,-1.846296 3.73089,-4.874689 5.86033,-6.31966 2.27869,-1.546244 6.18891,-2.920584 8.32633,-2.926486 1.48368,-0.0041 2.06972,0.632939 3.07341,3.340852 0.89955,2.426933 1.17953,4.419713 0.66559,4.737344 -0.18919,0.116926 -1.49952,0.362234 -2.91184,0.545129 -4.2286,0.547602 -7.0044,2.350622 -9.70653,6.304876 -0.68946,1.008956 -1.40037,1.881405 -1.57979,1.938775 -0.17942,0.05737 -1.28075,-0.850222 -2.4474,-2.016869 z m -151.96594,-3.674601 c -1.15897,-1.567177 -3.18379,-3.512629 -4.42251,-4.249172 -1.17512,-0.698721 -3.71291,-1.373224 -5.16669,-1.373224 -1.64882,0 -2.75561,-0.283535 -2.75561,-0.70592 0,-0.206355 0.55562,-1.917878 1.23471,-3.803386 l 1.23471,-3.428195 h 1.42504 c 1.86917,0 4.87039,0.686097 6.68887,1.529115 1.8517,0.85842 5.48543,4.441405 6.30513,6.21709 l 0.58346,1.263912 -0.93534,2.024413 c -1.13234,2.450819 -2.1071,3.782137 -2.76918,3.782137 -0.28151,0 -0.89206,-0.539389 -1.42259,-1.25677 z m 83.83123,0.848841 c -2.97401,-1.021911 -3.84353,-4.673472 -1.69544,-7.120015 2.03073,-2.312874 5.89009,-1.599067 6.99486,1.293733 1.34157,3.51285 -1.84295,7.013974 -5.29942,5.826282 z m -50.6704,-7.8603 c -1.99729,-1.35934 -2.61971,-3.461544 -1.61056,-5.439625 1.80451,-3.537145 6.9159,-2.881713 7.96695,1.021602 0.47027,1.746442 -0.45603,3.755798 -2.13059,4.621747 -1.16232,0.601057 -3.18673,0.503461 -4.2258,-0.203724 z m 75.72929,-22.299332 c -1.69006,-0.845504 -3.49535,-2.410918 -3.49535,-3.030911 0,-0.133407 0.84505,-0.789219 1.87789,-1.45736 3.45288,-2.233655 5.37337,-4.865978 7.01546,-9.615718 0.26852,-0.776695 0.67541,-1.512355 0.9042,-1.634799 0.97405,-0.521298 5.13599,2.172903 5.92492,3.835461 0.59412,1.252004 0.38601,2.583983 -0.79095,5.062427 -1.57768,3.322288 -3.9708,5.988428 -6.61092,7.365141 -1.28636,0.670782 -2.75562,0.511154 -4.82525,-0.524241 z m -38.34759,-8.845267 c -1.16905,-0.530697 -4.3061,-3.383415 -4.3061,-3.915816 0,-0.169339 0.73277,-0.805503 1.62838,-1.413697 0.8956,-0.608194 2.10641,-1.535365 2.69069,-2.060379 1.44524,-1.298657 3.35417,-4.283009 4.40143,-6.88103 0.47683,-1.182885 0.98173,-2.221637 1.12202,-2.308338 0.32891,-0.203278 2.77407,1.48226 4.49744,3.100243 l 1.34351,1.261349 -0.1813,1.407435 c -0.49203,3.819564 -4.82019,9.415846 -8.45765,10.935675 -1.19475,0.499196 -1.38124,0.490653 -2.73842,-0.125442 z"
       id="path5" /><path
       style="fill:#933489"
       d="m -344.31642,221.81155 c -8.10595,-1.18147 -14.02397,-2.93417 -19.9245,-5.90089 -10.19561,-5.12626 -18.1392,-13.21103 -23.21969,-23.63239 l -1.51189,-3.10127 0.85697,-1.41399 c 1.23956,-2.04526 7.28026,-10.0655 11.12079,-14.76507 3.48714,-4.26713 13.31104,-14.52778 13.90939,-14.52778 0.27401,0 0.23908,0.32789 -0.15782,1.48149 -1.23975,3.60342 -1.7344,10.43399 -1.03109,14.23852 0.15553,0.84134 0.21786,1.59462 0.13852,1.67397 -0.19183,0.19183 -0.3464,-0.32868 -0.55082,-1.85483 -0.30427,-2.27161 -0.66423,-1.02373 -0.66423,2.30268 0,3.58205 0.68821,8.37556 1.7189,11.97241 1.94984,6.80448 7.09694,13.82354 12.96547,17.68092 2.91417,1.91548 7.87373,4.11267 11.2448,4.98167 6.58471,1.69743 16.64578,1.65483 23.16263,-0.0981 7.24518,-1.94881 14.49703,-5.72001 18.48347,-9.61203 1.82484,-1.78161 1.41772,-0.84347 -0.8652,1.9937 -6.17761,7.67744 -16.07292,14.18415 -25.2769,16.62095 -5.52283,1.4622 -8.58549,1.88695 -14.31338,1.98506 -2.91042,0.0498 -5.64885,0.0386 -6.08542,-0.025 z m -147.24062,-1.37212 c -2.02051,-0.0887 -2.38125,-0.4072 -2.38125,-2.10225 0,-1.46965 0.68378,-2.79458 2.5963,-5.03078 0.84072,-0.98301 3.17376,-3.75181 5.18454,-6.15291 8.08933,-9.65957 17.46335,-19.53252 18.25648,-19.22816 0.356,0.13661 0.42102,0.70943 0.42102,3.70934 0,2.9023 0.0756,3.61055 0.41572,3.8928 0.32344,0.26843 2.39381,0.34575 9.32656,0.34829 10.04183,0.004 12.26091,-0.23554 17.238,-1.8583 6.10018,-1.98893 13.73526,-6.93859 20.32535,-13.17647 3.89366,-3.68556 10.15888,-11.0224 17.52176,-20.51875 4.88952,-6.3063 13.38779,-16.92247 15.99086,-19.97604 2.88225,-3.38106 9.15988,-9.68024 11.65362,-11.69362 8.34136,-6.73462 18.13773,-11.07718 28.575,-12.66683 4.02486,-0.61301 12.99792,-0.6178 16.80104,-0.009 11.09736,1.77652 20.4022,6.54536 28.44785,14.57985 3.99962,3.99406 5.3409,5.68624 4.97914,6.28177 -0.21991,0.36202 -2.01935,1.97088 -7.63012,6.82201 -5.52132,4.7738 -9.79169,8.36422 -10.49571,8.82453 l -0.70613,0.4617 -2.60116,-2.40981 c -10.73525,-9.94551 -22.60602,-11.90771 -35.14491,-5.80934 -4.47427,2.17609 -11.00479,7.31752 -18.47992,14.54909 -4.81233,4.65554 -8.64488,9.0255 -14.46316,16.49126 -7.65776,9.8261 -13.79893,17.45434 -16.52107,20.52163 -10.686,12.04088 -21.78286,19.28381 -34.67231,22.63067 -5.42485,1.4086 -6.47549,1.46122 -30.56041,1.53051 -12.29651,0.0354 -23.1312,0.0303 -24.07709,-0.0112 z m 107.51822,-60.80186 c 0.31409,-0.12053 0.17017,-0.37913 -0.63982,-1.14966 -1.41061,-1.34189 -1.45663,-2.56952 -0.14548,-3.88067 0.957,-0.957 1.7641,-1.12121 2.92071,-0.59422 1.4234,0.64855 1.98303,2.71079 1.10095,4.05702 -0.87334,1.33288 -0.25058,1.26872 1.26748,-0.13058 0.78989,-0.7281 1.32586,-1.54266 1.71218,-2.60218 0.94476,-2.5911 2.5753,-4.77117 6.48229,-8.66695 10.92582,-10.8945 20.26209,-15.45226 31.65291,-15.45226 h 2.70883 l 1.82438,1.86834 c 2.13598,2.18744 3.58014,2.92051 6.11008,3.10153 2.36712,0.16936 3.89091,-0.28767 5.4062,-1.62148 3.14568,-2.76894 3.35895,-7.65668 0.46406,-10.63531 -1.62903,-1.67615 -3.19713,-2.32149 -5.66424,-2.3311 -2.82537,-0.011 -4.30674,0.69553 -6.46435,3.08312 l -1.67723,1.85601 -3.98392,0.20394 c -13.7228,0.7025 -22.25543,5.19269 -36.70176,19.31387 -3.1451,3.0743 -3.89689,3.67711 -4.8948,3.9248 -2.74762,0.68198 -3.24775,0.89308 -4.24025,1.78974 -1.98379,1.79223 -2.25413,4.73553 -0.614,6.68472 0.82658,0.98233 2.43111,1.54382 3.37578,1.18132 z m 54.50937,-27.5353 c -1.57003,-0.33066 -2.66336,-2.87745 -1.96209,-4.57047 1.1906,-2.87434 6.09283,-1.90387 6.09283,1.20617 0,2.28262 -1.90393,3.83329 -4.13074,3.3643 z m -72.9605,-6.90347 c -0.20662,-0.40018 -1.27077,-2.70408 -2.36478,-5.11978 -2.57582,-5.68769 -3.57988,-7.67365 -5.67173,-11.21824 -9.8461,-16.683972 -20.81967,-26.559566 -37.44047,-33.694297 -0.69123,-0.296718 -1.25677,-0.704249 -1.25677,-0.905624 0,-0.930931 2.76279,-6.828362 4.39759,-9.387057 0.48812,-0.763984 1.06974,-1.389062 1.29247,-1.389062 0.72217,0 5.71553,2.65307 8.44826,4.488728 8.97609,6.029517 15.69108,12.980433 21.87101,22.639415 5.73379,8.961677 9.71154,19.465927 11.19638,29.566847 0.47399,3.22445 0.54488,5.74668 0.1615,5.74668 -0.14179,0 -0.42685,-0.32742 -0.63346,-0.72761 z m 14.92258,-8.73125 c 0.007,-0.87731 0.0488,-0.93905 0.35689,-0.53328 0.19166,0.2524 0.44497,0.37147 0.5629,0.26459 0.11794,-0.10688 0.13593,0.0238 0.04,0.29033 -0.0959,0.26657 -0.17445,0.59399 -0.17445,0.72761 0,0.13362 -0.17859,0.24294 -0.39687,0.24294 -0.28372,0 -0.39448,-0.28289 -0.38846,-0.99219 z m -46.15162,-10.15648 c -8.15585,-6.670401 -15.36443,-9.55616 -21.74884,-8.706553 -2.29049,0.304807 -3.82641,0.805084 -9.234,3.007673 -4.19897,1.71031 -6.54493,2.12078 -11.24458,1.96746 -3.42051,-0.11159 -4.12366,-0.21887 -6.4825,-0.98898 -4.91702,-1.605297 -9.74327,-4.459803 -13.36547,-7.905057 l -1.98036,-1.883623 3.90038,-3.839875 c 2.73844,-2.695956 4.08136,-3.839875 4.50786,-3.839875 0.38286,0 1.09296,0.499571 1.92045,1.351091 2.10302,2.164081 5.38745,4.714299 7.33412,5.694623 4.14324,2.086501 8.19655,2.249714 12.63198,0.508648 7.33404,-2.878879 7.46926,-2.913478 11.37708,-2.911055 2.89644,0.0018 3.96155,0.113716 5.63258,0.591856 5.80944,1.662283 10.61118,5.141416 15.0498,10.904417 2.98184,3.87156 5.3792,8.21983 4.51918,8.19677 -0.10914,-0.003 -1.3771,-0.96931 -2.81768,-2.14752 z m 74.98278,1.61488 c 0,-0.93155 3.07688,-5.8299 5.53729,-8.815293 4.25839,-5.167019 8.24327,-8.01613 13.7773,-9.850498 2.05802,-0.682174 2.5859,-0.746158 6.2177,-0.753647 4.39507,-0.0091 3.87917,-0.135325 11.37709,2.784467 2.6707,1.040009 3.15216,1.142377 5.84553,1.242882 2.71409,0.101278 3.10495,0.05099 5.19053,-0.667883 2.93351,-1.01114 5.56919,-2.782439 8.65852,-5.818937 1.40408,-1.380073 2.71942,-2.453967 3.00569,-2.453967 0.43619,0 7.5719,6.610464 8.19768,7.594269 0.59374,0.933432 -6.02259,6.34672 -10.52504,8.611272 -4.71585,2.371885 -8.8886,3.290185 -13.74241,3.024315 -3.58598,-0.19643 -5.7722,-0.74472 -10.73154,-2.69139 -4.99693,-1.961415 -5.77741,-2.193588 -8.50603,-2.53031 -6.31514,-0.779314 -13.55254,2.200581 -21.49512,8.8503 -1.97683,1.65504 -2.80719,2.09117 -2.80719,1.47442 z m -11.1125,-22.051521 c 0,-0.05494 0.20836,-0.263302 0.46302,-0.463021 0.41965,-0.329108 0.42901,-0.319749 0.0999,0.0999 -0.34564,0.440729 -0.56292,0.580887 -0.56292,0.363126 z m 27.65306,-6.589961 c -0.79707,-0.797076 -0.93014,-1.106143 -0.93014,-2.160367 0,-1.695469 0.55657,-2.629425 1.97663,-3.31686 1.60352,-0.776254 3.08969,-0.546599 4.3009,0.664612 0.75276,0.752759 0.86622,1.043476 0.86622,2.219481 0,1.167958 -0.12218,1.486577 -0.89225,2.326871 -0.82398,0.89912 -1.0261,0.982134 -2.64173,1.08501 -1.70894,0.108817 -1.77104,0.08984 -2.67963,-0.818747 z m 25.5327,-10.471481 c -2.50091,-2.500913 -2.60437,-2.953846 -1.2801,-5.603961 0.92261,-1.846296 3.73089,-4.874689 5.86033,-6.31966 2.27869,-1.546244 6.18891,-2.920584 8.32633,-2.926486 1.48368,-0.0041 2.06972,0.632939 3.07341,3.340852 0.89955,2.426933 1.17953,4.419713 0.66559,4.737344 -0.18919,0.116926 -1.49952,0.362234 -2.91184,0.545129 -4.2286,0.547602 -7.0044,2.350622 -9.70653,6.304876 -0.68946,1.008956 -1.40037,1.881405 -1.57979,1.938775 -0.17942,0.05737 -1.28075,-0.850222 -2.4474,-2.016869 z m -68.13471,-2.82576 c -2.97401,-1.021911 -3.84353,-4.673472 -1.69544,-7.120015 2.03073,-2.312874 5.89009,-1.599067 6.99486,1.293733 1.34157,3.51285 -1.84295,7.013974 -5.29942,5.826282 z m -94.78195,-6.654591 c 0.25744,-0.06708 0.61462,-0.06267 0.79375,0.0098 0.17914,0.07247 -0.0315,0.127361 -0.46805,0.121969 -0.43656,-0.0054 -0.58313,-0.06469 -0.3257,-0.131773 z m -1.39409,-0.478105 c 0,-0.218281 0.0468,-0.396875 0.10398,-0.396875 0.0572,0 0.17252,0.178594 0.25628,0.396875 0.0838,0.218281 0.037,0.396875 -0.10398,0.396875 -0.14096,0 -0.25628,-0.178594 -0.25628,-0.396875 z m 45.50564,-0.727604 c -1.99729,-1.35934 -2.61971,-3.461544 -1.61056,-5.439625 1.80451,-3.537145 6.9159,-2.881713 7.96695,1.021602 0.47027,1.746442 -0.45603,3.755798 -2.13059,4.621747 -1.16232,0.601057 -3.18673,0.503461 -4.2258,-0.203724 z m 75.72929,-22.299332 c -1.69006,-0.845504 -3.49535,-2.410918 -3.49535,-3.030911 0,-0.133407 0.84505,-0.789219 1.87789,-1.45736 3.45288,-2.233655 5.37337,-4.865978 7.01546,-9.615718 0.26852,-0.776695 0.67541,-1.512355 0.9042,-1.634799 0.97405,-0.521298 5.13599,2.172903 5.92492,3.835461 0.59412,1.252004 0.38601,2.583983 -0.79095,5.062427 -1.57768,3.322288 -3.9708,5.988428 -6.61092,7.365141 -1.28636,0.670782 -2.75562,0.511154 -4.82525,-0.524241 z m -38.34759,-8.845267 c -1.16905,-0.530697 -4.3061,-3.383415 -4.3061,-3.915816 0,-0.169339 0.73277,-0.805503 1.62838,-1.413697 0.8956,-0.608194 2.10641,-1.535365 2.69069,-2.060379 1.44524,-1.298657 3.35417,-4.283009 4.40143,-6.88103 0.47683,-1.182885 0.98173,-2.221637 1.12202,-2.308338 0.32891,-0.203278 2.77407,1.48226 4.49744,3.100243 l 1.34351,1.261349 -0.1813,1.407435 c -0.49203,3.819564 -4.82019,9.415846 -8.45765,10.935675 -1.19475,0.499196 -1.38124,0.490653 -2.73842,-0.125442 z"
       id="path4" /><path
       style="fill:#1a959c"
       d="m -491.55704,220.43943 c -2.02051,-0.0887 -2.38125,-0.4072 -2.38125,-2.10225 0,-1.46965 0.68378,-2.79458 2.5963,-5.03078 0.84072,-0.98301 3.17376,-3.75181 5.18454,-6.15291 8.08933,-9.65957 17.46335,-19.53252 18.25648,-19.22816 0.356,0.13661 0.42102,0.70943 0.42102,3.70934 0,2.9023 0.0756,3.61055 0.41572,3.8928 0.32344,0.26843 2.39381,0.34575 9.32656,0.34829 10.04183,0.004 12.26091,-0.23554 17.238,-1.8583 6.10018,-1.98893 13.73526,-6.93859 20.32535,-13.17647 3.89366,-3.68556 10.15888,-11.0224 17.52176,-20.51875 4.88952,-6.3063 13.38779,-16.92247 15.99086,-19.97604 2.88225,-3.38106 9.15988,-9.68024 11.65362,-11.69362 8.34136,-6.73462 18.13773,-11.07718 28.575,-12.66683 4.02486,-0.61301 12.99792,-0.6178 16.80104,-0.009 11.09736,1.77652 20.4022,6.54536 28.44785,14.57985 3.99962,3.99406 5.3409,5.68624 4.97914,6.28177 -0.21991,0.36202 -2.01935,1.97088 -7.63012,6.82201 -5.52132,4.7738 -9.79169,8.36422 -10.49571,8.82453 l -0.70613,0.4617 -2.60116,-2.40981 c -10.73525,-9.94551 -22.60602,-11.90771 -35.14491,-5.80934 -4.47427,2.17609 -11.00479,7.31752 -18.47992,14.54909 -4.81233,4.65554 -8.64488,9.0255 -14.46316,16.49126 -7.65776,9.8261 -13.79893,17.45434 -16.52107,20.52163 -10.686,12.04088 -21.78286,19.28381 -34.67231,22.63067 -5.42485,1.4086 -6.47549,1.46122 -30.56041,1.53051 -12.29651,0.0354 -23.1312,0.0303 -24.07709,-0.0112 z m 107.51822,-60.80186 c 0.31409,-0.12053 0.17017,-0.37913 -0.63982,-1.14966 -1.41061,-1.34189 -1.45663,-2.56952 -0.14548,-3.88067 0.957,-0.957 1.7641,-1.12121 2.92071,-0.59422 1.4234,0.64855 1.98303,2.71079 1.10095,4.05702 -0.87334,1.33288 -0.25058,1.26872 1.26748,-0.13058 0.78989,-0.7281 1.32586,-1.54266 1.71218,-2.60218 0.94476,-2.5911 2.5753,-4.77117 6.48229,-8.66695 10.92582,-10.8945 20.26209,-15.45226 31.65291,-15.45226 h 2.70883 l 1.82438,1.86834 c 2.13598,2.18744 3.58014,2.92051 6.11008,3.10153 2.36712,0.16936 3.89091,-0.28767 5.4062,-1.62148 3.14568,-2.76894 3.35895,-7.65668 0.46406,-10.63531 -1.62903,-1.67615 -3.19713,-2.32149 -5.66424,-2.3311 -2.82537,-0.011 -4.30674,0.69553 -6.46435,3.08312 l -1.67723,1.85601 -3.98392,0.20394 c -13.7228,0.7025 -22.25543,5.19269 -36.70176,19.31387 -3.1451,3.0743 -3.89689,3.67711 -4.8948,3.9248 -2.74762,0.68198 -3.24775,0.89308 -4.24025,1.78974 -1.98379,1.79223 -2.25413,4.73553 -0.614,6.68472 0.82658,0.98233 2.43111,1.54382 3.37578,1.18132 z m 54.50937,-27.5353 c -1.57003,-0.33066 -2.66336,-2.87745 -1.96209,-4.57047 1.1906,-2.87434 6.09283,-1.90387 6.09283,1.20617 0,2.28262 -1.90393,3.83329 -4.13074,3.3643 z m -72.9605,-6.90347 c -0.20662,-0.40018 -1.27077,-2.70408 -2.36478,-5.11978 -2.57582,-5.68769 -3.57988,-7.67365 -5.67173,-11.21824 -9.8461,-16.683972 -20.81967,-26.559566 -37.44047,-33.694297 -0.69123,-0.296718 -1.25677,-0.704249 -1.25677,-0.905624 0,-0.930931 2.76279,-6.828362 4.39759,-9.387057 0.48812,-0.763984 1.06974,-1.389062 1.29247,-1.389062 0.72217,0 5.71553,2.65307 8.44826,4.488728 8.97609,6.029517 15.69108,12.980433 21.87101,22.639415 5.73379,8.961677 9.71154,19.465927 11.19638,29.566847 0.47399,3.22445 0.54488,5.74668 0.1615,5.74668 -0.14179,0 -0.42685,-0.32742 -0.63346,-0.72761 z m -31.22904,-18.88773 c -8.15585,-6.670401 -15.36443,-9.55616 -21.74884,-8.706553 -2.29049,0.304807 -3.82641,0.805084 -9.234,3.007673 -4.19897,1.71031 -6.54493,2.12078 -11.24458,1.96746 -3.42051,-0.11159 -4.12366,-0.21887 -6.4825,-0.98898 -4.91702,-1.605297 -9.74327,-4.459803 -13.36547,-7.905057 l -1.98036,-1.883623 3.90038,-3.839875 c 2.73844,-2.695956 4.08136,-3.839875 4.50786,-3.839875 0.38286,0 1.09296,0.499571 1.92045,1.351091 2.10302,2.164081 5.38745,4.714299 7.33412,5.694623 4.14324,2.086501 8.19655,2.249714 12.63198,0.508648 7.33404,-2.878879 7.46926,-2.913478 11.37708,-2.911055 2.89644,0.0018 3.96155,0.113716 5.63258,0.591856 5.80944,1.662283 10.61118,5.141416 15.0498,10.904417 2.98184,3.87156 5.3792,8.21983 4.51918,8.19677 -0.10914,-0.003 -1.3771,-0.96931 -2.81768,-2.14752 z m 91.52334,-27.026602 c -0.79707,-0.797076 -0.93014,-1.106143 -0.93014,-2.160367 0,-1.695469 0.55657,-2.629425 1.97663,-3.31686 1.60352,-0.776254 3.08969,-0.546599 4.3009,0.664612 0.75276,0.752759 0.86622,1.043476 0.86622,2.219481 0,1.167958 -0.12218,1.486577 -0.89225,2.326871 -0.82398,0.89912 -1.0261,0.982134 -2.64173,1.08501 -1.70894,0.108817 -1.77104,0.08984 -2.67963,-0.818747 z m 25.5327,-10.471481 c -2.50091,-2.500913 -2.60437,-2.953846 -1.2801,-5.603961 0.92261,-1.846296 3.73089,-4.874689 5.86033,-6.31966 2.27869,-1.546244 6.18891,-2.920584 8.32633,-2.926486 1.48368,-0.0041 2.06972,0.632939 3.07341,3.340852 0.89955,2.426933 1.17953,4.419713 0.66559,4.737344 -0.18919,0.116926 -1.49952,0.362234 -2.91184,0.545129 -4.2286,0.547602 -7.0044,2.350622 -9.70653,6.304876 -0.68946,1.008956 -1.40037,1.881405 -1.57979,1.938775 -0.17942,0.05737 -1.28075,-0.850222 -2.4474,-2.016869 z m -68.13471,-2.82576 c -2.97401,-1.021911 -3.84353,-4.673472 -1.69544,-7.120015 2.03073,-2.312874 5.89009,-1.599067 6.99486,1.293733 1.34157,3.51285 -1.84295,7.013974 -5.29942,5.826282 z m -13.2887,-39.004899 c -1.16905,-0.530697 -4.3061,-3.383415 -4.3061,-3.915816 0,-0.169339 0.73277,-0.805503 1.62838,-1.413697 0.8956,-0.608194 2.10641,-1.535365 2.69069,-2.060379 1.44524,-1.298657 3.35417,-4.283009 4.40143,-6.88103 0.47683,-1.182885 0.98173,-2.221637 1.12202,-2.308338 0.32891,-0.203278 2.77407,1.48226 4.49744,3.100243 l 1.34351,1.261349 -0.1813,1.407435 c -0.49203,3.819564 -4.82019,9.415846 -8.45765,10.935675 -1.19475,0.499196 -1.38124,0.490653 -2.73842,-0.125442 z"
       id="path3" /><path
       style="fill:#0d7984"
       d="m -493.39981,219.6063 c -0.75228,-1.40564 -0.0154,-3.50388 2.05323,-5.84673 0.70257,-0.79568 3.16665,-3.70889 5.47573,-6.47378 2.30909,-2.7649 5.32917,-6.27724 6.71128,-7.80521 3.08908,-3.41506 10.6732,-11.1125 10.94891,-11.1125 0.11085,0 0.20336,1.51804 0.20559,3.37343 0.002,1.85539 0.0999,3.52445 0.21704,3.70901 0.11714,0.18456 0.62055,0.45245 1.11868,0.59531 1.23369,0.35381 16.20229,0.3291 19.16544,-0.0316 8.87258,-1.08018 16.18919,-4.81498 25.92916,-13.23566 1.45521,-1.2581 2.93448,-2.59872 3.28727,-2.97916 0.96666,-1.04242 1.12041,-0.83359 0.37206,0.50536 -0.65052,1.16391 -0.65621,1.21702 -0.20537,1.91823 0.25503,0.39664 1.70327,1.94547 3.21831,3.44184 l 2.75463,2.72067 0.98639,-0.78123 c 2.89537,-2.29317 11.54787,-11.74581 15.5272,-16.96306 0.72138,-0.94579 2.09273,-2.49361 3.04746,-3.43959 0.95472,-0.94598 2.67243,-2.76884 3.81712,-4.05081 2.52016,-2.82239 2.79259,-2.99369 3.89011,-2.44617 1.92991,0.96276 5.57952,-0.0269 5.88149,-1.59496 0.0576,-0.29929 0.40612,-0.98818 0.7744,-1.53088 0.36829,-0.54269 0.81223,-1.42734 0.98654,-1.96589 0.48805,-1.50788 1.45054,-3.30632 2.06817,-3.86445 0.73577,-0.66489 0.70359,-0.4359 -0.15321,1.08995 -0.39103,0.69639 -0.85086,1.86148 -1.02183,2.58908 -0.41619,1.77114 0.0887,2.77813 1.39297,2.77813 0.47795,0 0.869,0.12445 0.869,0.27657 0,0.30965 1.66625,0.083 2.47801,-0.33709 0.87582,-0.45323 0.38735,0.17083 -2.76748,3.53563 -4.95187,5.28146 -6.25931,6.86389 -14.65366,17.73583 -12.43222,16.10156 -18.5336,22.81726 -25.66284,28.24666 -6.77987,5.16335 -15.36789,9.31048 -23.12253,11.16583 -5.11486,1.22376 -6.45971,1.27844 -31.57833,1.2839 -23.2001,0.005 -23.74324,-0.006 -24.01094,-0.50661 z m 67.32437,-20.13108 c 0.51309,0.0204 0.62583,-0.0421 0.77428,-0.42894 0.14549,-0.37915 0.10991,-0.38755 -0.28017,-0.0661 -0.40615,0.33465 -0.42957,0.29893 -0.25733,-0.3924 l 0.18949,-0.76056 -0.8957,0.94973 c -0.6817,0.7228 -0.96935,0.87608 -1.20394,0.64149 -0.44505,-0.44505 -0.38238,-0.65045 0.24881,-0.81552 0.61372,-0.16049 0.56006,-0.7965 -0.0776,-0.92025 -0.49261,-0.0956 -1.36843,1.16803 -1.16927,1.68704 0.0793,0.20653 0.39299,0.3755 0.69718,0.3755 0.32948,0 0.48152,0.1158 0.37606,0.28644 -0.0974,0.15754 0.19202,0.0956 0.64307,-0.13766 0.45106,-0.23324 0.88088,-0.42167 0.95516,-0.41872 z m 21.45245,-35.44881 c 0.22322,-0.41224 3.87305,-5.25929 5.18003,-6.87917 0.41094,-0.50932 1.7646,-2.20596 3.00813,-3.77031 1.24353,-1.56435 2.32381,-2.84427 2.40062,-2.84427 0.41664,0 -3.65381,5.51643 -4.68553,6.35 -0.0901,0.0728 -0.47595,0.7276 -0.85755,1.45521 -0.3816,0.7276 -1.72134,2.39448 -2.9772,3.70416 -1.25587,1.30969 -2.18669,2.20266 -2.0685,1.98438 z m 20.25231,-6.01927 c -0.92413,-0.76727 -0.98944,-1.94543 -0.16232,-2.92841 1.05167,-1.24984 2.4784,-1.13049 3.20149,0.2678 1.06547,2.06041 -1.28437,4.11755 -3.03917,2.66061 z m 1.59708,-1.25677 c 0,-0.13825 -0.12799,-0.29402 -0.28443,-0.34617 -0.15643,-0.0521 -0.28443,0.10363 -0.28443,0.34617 0,0.24253 0.128,0.39831 0.28443,0.34616 0.15644,-0.0521 0.28443,-0.20792 0.28443,-0.34616 z m 10.01978,-7.9439 c 0.18408,-0.22179 0.38917,-0.34878 0.45577,-0.28218 0.18349,0.18348 -0.18932,0.68545 -0.50909,0.68545 -0.17544,0 -0.15537,-0.15181 0.0533,-0.40327 z m 14.92987,-12.15223 c 0.87901,-0.72663 6.59827,-3.08057 8.99906,-3.70385 2.46449,-0.63982 2.90248,-0.43491 0.53972,0.2525 -3.35196,0.9752 -5.91581,1.91759 -7.24124,2.66167 -0.67398,0.37836 -1.64214,0.85589 -2.15146,1.06118 l -0.92605,0.37324 z m 31.03618,-19.36973 c 0.1819,-0.0734 0.47956,-0.0734 0.66146,0 0.1819,0.0734 0.0331,0.13345 -0.33073,0.13345 -0.3638,0 -0.51263,-0.06 -0.33073,-0.13345 z m -2.4474,-0.36085 c -0.35334,-0.15645 -0.13356,-0.182 0.66146,-0.0769 0.65485,0.0866 1.24024,0.2004 1.30087,0.25291 0.22982,0.19903 -1.45701,0.0477 -1.96233,-0.17603 z m -103.84895,-10.97329 c -0.49366,-0.50933 -0.74973,-0.92605 -0.56904,-0.92605 0.39867,0 1.62737,1.18952 1.62737,1.57548 0,0.40986 -0.078,0.36197 -1.05833,-0.64943 z"
       id="path2" /><path
       style="fill:#096172"
       d="m -493.11909,219.90607 c -0.16545,-0.0551 -0.29003,-0.74971 -0.29003,-1.61694 0,-1.87493 0.0314,-1.92055 7.21714,-10.46717 6.57462,-7.81982 12.80977,-14.55769 17.51002,-18.9218 l 0.70927,-0.65855 -0.18541,2.93008 c -0.19807,3.13025 0.0728,4.68192 0.87068,4.9881 0.23734,0.0911 4.33992,0.23982 9.11685,0.33055 4.77694,0.0907 8.65217,0.19812 8.61164,0.23866 -0.0405,0.0405 -2.86895,0.20513 -6.28538,0.36577 -3.41643,0.16064 -6.44981,0.39518 -6.74085,0.5212 -0.29104,0.12602 -0.73753,0.29571 -0.99219,0.3771 -0.62638,0.20019 -0.58224,0.60963 0.13229,1.22717 0.32742,0.28297 1.05371,0.93356 1.61396,1.44575 0.57278,0.52364 1.29659,0.93125 1.65365,0.93125 0.34925,0 0.635,0.1233 0.635,0.27399 0,0.15069 0.51889,0.49641 1.1531,0.76826 1.13761,0.48764 1.48022,1.00868 1.48935,2.26505 0.002,0.29104 0.49455,1.00541 1.0943,1.5875 l 1.09046,1.05833 4.1092,0.0907 c 6.23972,0.13766 10.33884,-0.63829 16.74413,-3.16961 7.9785,-3.15304 13.47313,-7.07459 23.66425,-16.88932 4.79397,-4.61691 10.24831,-10.54915 14.05592,-15.28746 1.66637,-2.07367 3.11454,-3.77025 3.21816,-3.77018 0.10363,7e-5 0.84306,0.24895 1.64318,0.55305 1.27428,0.48432 1.89795,0.54101 5.02708,0.45693 2.84575,-0.0765 3.75795,-0.19588 4.48498,-0.58713 l 0.91265,-0.49114 -0.49696,0.76168 c -0.27332,0.41893 -1.96187,2.63503 -3.75234,4.92468 -1.79046,2.28964 -4.29177,5.50433 -5.55846,7.14375 -13.13395,16.99856 -18.8071,22.87969 -27.91267,28.93597 -6.55124,4.35735 -15.23815,7.9076 -22.31321,9.11918 -3.37286,0.57759 -3.90998,0.58971 -27.68966,0.62516 -13.33754,0.0199 -24.38059,-0.007 -24.5401,-0.0605 z m 44.63953,-23.51665 c 0.19099,-0.0764 0.4192,-0.067 0.50711,0.0209 0.0879,0.0879 -0.0684,0.15045 -0.34726,0.13896 -0.30823,-0.0127 -0.37092,-0.0754 -0.15985,-0.15985 z"
       id="path1" /></g></svg>
